# xmcd
#
# Track frame offsets: 
#        225
#        12998
#        24727
#        37885
#        49062
#        61886
#        71978
#        88080
#        99755
#        115039
#        124826
#        138834
#        149537
#        163072
#        177690
#        189200
#
# Disc length: 2667 seconds
#
# Revision: 2
# Processed by: cddbd v1.5.2PL0 Copyright (c) Steve Scherf et al.
# Submitted via: ExactAudioCopy v0.95a5
#
DISCID=de0a6810
DTITLE=Various Artist - Please Come Home for Christmas
DYEAR=1961
DGENRE=Xmas
TTITLE0=Charles Brown - Please Come Home for Christmas
TTITLE1=Charles Brown - Christmas in Heaven
TTITLE2=Charles Brown - Christmas Blues
TTITLE3=Bill Doggett - I'll Be Home for Christmas
TTITLE4=Charles Brown - It's Christmas Time
TTITLE5=Charles Brown - Wrap Yourself in a Christmas Package
TTITLE6=Bill Doggett - Blue Christmas
TTITLE7=Charles Brown - Christmas Questions
TTITLE8=Charles Brown - Merry Christmas Baby
TTITLE9=Charles Brown - Bringing in a Brand New Year
TTITLE10=Bill Doggett - The Christmas Song
TTITLE11=Charles Brown - Christmas Comes But Once a Year
TTITLE12=Charles Brown - It's Christmas All Year Round
TTITLE13=Charles Brown - Christmas With No One to Love
TTITLE14=Bill Doggett - Winter Wonderland
TTITLE15=Charles Brown - Let's Make Every Day a Christmas Day
EXTD=
EXTT0=
EXTT1=
EXTT2=
EXTT3=
EXTT4=
EXTT5=
EXTT6=
EXTT7=
EXTT8=
EXTT9=
EXTT10=
EXTT11=
EXTT12=
EXTT13=
EXTT14=
EXTT15=
PLAYORDER=
